<svg xmlns="http://www.w3.org/2000/svg" width="12" height="14" viewBox="0 0 12 14">
    <g fill="#FFF" fill-rule="evenodd">
        <rect width="24" height="24" fill-opacity="0" rx="4" transform="translate(-6 -5)"/>
        <path fill-rule="nonzero" d="M1.333.583H8.5a1 1 0 0 1 1 1v.167H1.333v9.333h-.166a1 1 0 0 1-1-1v-8.5a1 1 0 0 1 1-1h.166zm2.334 3.5v8.167h7V4.083h-7zm-.584-1.166h8.167c.322 0 .583.26.583.583v9.333a.583.583 0 0 1-.583.584H3.083a.583.583 0 0 1-.583-.584V3.5c0-.322.261-.583.583-.583z"/>
    </g>
</svg>
