<svg xmlns="http://www.w3.org/2000/svg" width="217" height="32" viewBox="0 0 217 32">
  <g fill="none" fill-rule="evenodd">
    <g fill-rule="nonzero" transform="translate(168 7)">
      <rect width="49" height="18" fill="#56585A" rx="9"/>
      <path fill="#FFF" d="M14.46875,12 L13.5800781,9.72949219 L10.71875,9.72949219 L9.83984375,12 L9,12 L11.8222656,4.83203125 L12.5205078,4.83203125 L15.328125,12 L14.46875,12 Z M13.3212891,8.98242188 L12.4912109,6.77050781 C12.3837885,6.4905585 12.2731125,6.14713745 12.1591797,5.74023438 C12.0875647,6.05273594 11.9850267,6.39615698 11.8515625,6.77050781 L11.0117188,8.98242188 L13.3212891,8.98242188 Z M19.8300781,11.2822266 L19.7861328,11.2822266 C19.411782,11.8258491 18.8518917,12.0976562 18.1064453,12.0976562 C17.406572,12.0976562 16.8621439,11.8584008 16.4731445,11.3798828 C16.0841452,10.9013648 15.8896484,10.2210331 15.8896484,9.33886719 C15.8896484,8.45670132 16.084959,7.77148682 16.4755859,7.28320312 C16.8662129,6.79491943 17.4098272,6.55078125 18.1064453,6.55078125 C18.8323604,6.55078125 19.3889955,6.81445049 19.7763672,7.34179688 L19.8398438,7.34179688 L19.8056641,6.95605469 L19.7861328,6.58007812 L19.7861328,4.40234375 L20.5966797,4.40234375 L20.5966797,12 L19.9375,12 L19.8300781,11.2822266 Z M18.2089844,11.4189453 C18.7623726,11.4189453 19.163573,11.2683934 19.4125977,10.9672852 C19.6616223,10.6661769 19.7861328,10.1803419 19.7861328,9.50976562 L19.7861328,9.33886719 C19.7861328,8.58039985 19.6599948,8.03922688 19.4077148,7.71533203 C19.1554349,7.39143718 18.7526069,7.22949219 18.1992188,7.22949219 C17.723956,7.22949219 17.3601901,7.41422341 17.1079102,7.78369141 C16.8556302,8.1531594 16.7294922,8.67480132 16.7294922,9.34863281 C16.7294922,10.03223 16.8548165,10.5481753 17.1054688,10.8964844 C17.356121,11.2447934 17.7239559,11.4189453 18.2089844,11.4189453 Z M29.1367188,12 L29.1367188,8.51855469 C29.1367188,8.09212026 29.0455738,7.77229924 28.8632812,7.55908203 C28.6809887,7.34586482 28.3977884,7.23925781 28.0136719,7.23925781 C27.5091121,7.23925781 27.1363944,7.38411313 26.8955078,7.67382812 C26.6546212,7.96354312 26.5341797,8.4095022 26.5341797,9.01171875 L26.5341797,12 L25.7236328,12 L25.7236328,8.51855469 C25.7236328,8.09212026 25.6324879,7.77229924 25.4501953,7.55908203 C25.2679027,7.34586482 24.9830749,7.23925781 24.5957031,7.23925781 C24.0878881,7.23925781 23.7159843,7.39143728 23.4799805,7.69580078 C23.2439767,8.00016428 23.1259766,8.49901997 23.1259766,9.19238281 L23.1259766,12 L22.3154297,12 L22.3154297,6.6484375 L22.9746094,6.6484375 L23.1064453,7.38085938 L23.1455078,7.38085938 C23.2985034,7.12044141 23.5141588,6.91699292 23.7924805,6.77050781 C24.0708022,6.62402271 24.3824853,6.55078125 24.7275391,6.55078125 C25.5641318,6.55078125 26.1110013,6.8535126 26.3681641,7.45898438 L26.4072266,7.45898438 C26.5667326,7.17903506 26.79785,6.95768311 27.1005859,6.79492188 C27.4033218,6.63216064 27.7483705,6.55078125 28.1357422,6.55078125 C28.741214,6.55078125 29.1944972,6.70621589 29.4956055,7.01708984 C29.7967137,7.32796379 29.9472656,7.82519189 29.9472656,8.50878906 L29.9472656,12 L29.1367188,12 Z M32.4277344,12 L31.6171875,12 L31.6171875,6.6484375 L32.4277344,6.6484375 L32.4277344,12 Z M31.5488281,5.19824219 C31.5488281,5.01269438 31.5944006,4.8767908 31.6855469,4.79052734 C31.7766932,4.70426389 31.8906243,4.66113281 32.0273438,4.66113281 C32.1575527,4.66113281 32.2698563,4.70507769 32.3642578,4.79296875 C32.4586593,4.88085981 32.5058594,5.01594961 32.5058594,5.19824219 C32.5058594,5.38053477 32.4586593,5.51643835 32.3642578,5.60595703 C32.2698563,5.69547571 32.1575527,5.74023438 32.0273438,5.74023438 C31.8906243,5.74023438 31.7766932,5.69547571 31.6855469,5.60595703 C31.5944006,5.51643835 31.5488281,5.38053477 31.5488281,5.19824219 Z M37.8085938,12 L37.8085938,8.53808594 C37.8085938,8.10188584 37.7093109,7.77636826 37.5107422,7.56152344 C37.3121735,7.34667861 37.0013042,7.23925781 36.578125,7.23925781 C36.0182264,7.23925781 35.6080742,7.39062349 35.3476562,7.69335938 C35.0872383,7.99609526 34.9570312,8.49576475 34.9570312,9.19238281 L34.9570312,12 L34.1464844,12 L34.1464844,6.6484375 L34.8056641,6.6484375 L34.9375,7.38085938 L34.9765625,7.38085938 C35.142579,7.11718618 35.375324,6.9129239 35.6748047,6.76806641 C35.9742854,6.62320891 36.3079409,6.55078125 36.6757812,6.55078125 C37.3203157,6.55078125 37.8053369,6.70621589 38.1308594,7.01708984 C38.4563818,7.32796379 38.6191406,7.82519189 38.6191406,8.50878906 L38.6191406,12 L37.8085938,12 Z"/>
    </g>
    <path fill="#FFF" d="M132.915115,16.4670128 L132.9174,16.4670128 L132.9174,23.8720743 L128.7132,23.8720743 L128.7132,22.4754912 C127.50035,23.4728076 126.016212,23.9590175 124.652121,23.9590175 C120.186898,23.9590175 116.7474,20.6624555 116.7474,16.3060334 C116.7474,11.9496112 120.367178,8.41803312 124.8324,8.41803312 C129.297622,8.41803312 132.9174,11.9496112 132.9174,16.3060334 C132.9174,16.362012 132.916632,16.4156275 132.915115,16.4670128 Z M124.9941,19.6866047 C126.869493,19.6866047 128.3898,18.1009984 128.3898,16.1450536 C128.3898,14.189109 126.869493,12.6035028 124.9941,12.6035028 C123.118707,12.6035028 121.5984,14.189109 121.5984,16.1450536 C121.5984,18.1009984 123.118707,19.6866047 124.9941,19.6866047 Z M73.8366532,7.64986077 L70.1778,3.98681569 L73.8366532,0.323770616 L77.4955067,3.98681569 L73.8366532,7.64986077 Z M67.914,18.7898831 L67.914,23.9702114 L62.7396,23.9702114 L62.7396,21.2393218 L62.7396,15.2639761 C62.7396,13.833468 61.5812711,12.6738122 60.1524,12.6738122 C58.7235289,12.6738122 57.5652,13.833468 57.5652,15.2639761 L57.5652,20.0742455 L57.5652,23.9702114 L52.3908,23.9702114 L52.3908,20.0849653 L52.3908,15.2639761 C52.3908,13.833468 51.2324711,12.6738122 49.8036,12.6738122 C48.3747289,12.6738122 47.2164,13.833468 47.2164,15.2639761 L47.2164,17.9560208 L47.2164,18.7898831 L47.2164,23.9702114 L42.042,23.9702114 L42.042,18.7898831 L42.042,13.6095552 L42.042,8.75299758 L47.2164,8.75299758 L47.2164,10.6293088 C48.2835912,9.30897327 49.9153244,8.46479546 51.744,8.46479546 C53.6588084,8.46479546 55.3576849,9.3903695 56.4186018,10.8190071 C57.6044317,9.35428646 59.4160043,8.41803312 61.446,8.41803312 C65.0181778,8.41803312 67.914,11.3171731 67.914,14.8934432 C67.914,14.8971752 67.9139968,14.9009066 67.9139906,14.904637 L67.914,18.7898831 Z M71.4714,18.7786893 L71.4714,13.5983614 L71.4714,8.74180373 L76.6458,8.74180373 L76.6458,13.5983614 L76.6458,18.7786893 L76.6458,23.9590175 L71.4714,23.9590175 L71.4714,18.7786893 Z M93.6243,23.9590175 L91.5222,23.9590175 L91.5222,22.5545774 C90.3093501,23.5575045 88.8252122,24.04645 87.4611207,24.04645 C82.9958984,24.04645 79.5564,20.7313416 79.5564,16.3504106 C79.5564,11.9694796 83.1761777,8.41803312 87.6414,8.41803312 C89.0477605,8.41803312 90.3702541,8.77033311 91.5222,9.38988892 L91.5222,8.74180373 L91.5222,3.8852461 L95.7264,3.8852461 L95.7264,8.74180373 L95.7264,13.5983614 L95.7264,18.7786893 L95.7264,23.9590175 L93.6243,23.9590175 Z M87.8031,19.7500008 C89.6784934,19.7500008 91.1988,18.1554739 91.1988,16.1885253 C91.1988,14.2215768 89.6784934,12.6270498 87.8031,12.6270498 C85.9277066,12.6270498 84.4074,14.2215768 84.4074,16.1885253 C84.4074,18.1554739 85.9277066,19.7500008 87.8031,19.7500008 Z M160.5681,23.9590175 L158.466,23.9590175 L158.466,22.5545774 C157.25315,23.5575045 155.769012,24.04645 154.404921,24.04645 C149.939698,24.04645 146.5002,20.7313416 146.5002,16.3504106 C146.5002,11.9694796 150.119978,8.41803312 154.5852,8.41803312 C155.991561,8.41803312 157.314054,8.77033311 158.466,9.38988892 L158.466,8.74180373 L158.466,3.8852461 L162.6702,3.8852461 L162.6702,8.74180373 L162.6702,13.5983614 L162.6702,18.7786893 L162.6702,23.9590175 L160.5681,23.9590175 Z M154.7469,19.7500008 C156.622293,19.7500008 158.1426,18.1554739 158.1426,16.1885253 C158.1426,14.2215768 156.622293,12.6270498 154.7469,12.6270498 C152.871507,12.6270498 151.3512,14.2215768 151.3512,16.1885253 C151.3512,18.1554739 152.871507,19.7500008 154.7469,19.7500008 Z M109.956,9.64612715 L109.956,8.41803312 L114.807,8.41803312 L114.807,15.5409844 L114.806894,25.2540997 C114.787777,28.4563748 112.512309,31.0464 109.3092,31.0464 C108.379851,31.0464 106.207767,30.6451043 105.4284,30.2573499 L105.4284,26.0810888 C105.722453,26.2409169 107.344999,26.513613 107.6922,26.513613 C108.84663,26.513613 109.799234,25.5249187 109.938486,24.2472193 L109.956,24.2472193 L109.956,22.6024632 C108.816616,23.5514536 107.532999,24.04645 106.218321,24.04645 C101.753098,24.04645 98.3136,20.7313416 98.3136,16.3504106 C98.3136,11.9694796 101.933378,8.41803312 106.3986,8.41803312 C107.798776,8.41803312 108.985938,8.87866694 109.956,9.64612715 Z M106.5603,19.7500008 C108.435693,19.7500008 109.956,18.1554739 109.956,16.1885253 C109.956,14.2215768 108.435693,12.6270498 106.5603,12.6270498 C104.684907,12.6270498 103.1646,14.2215768 103.1646,16.1885253 C103.1646,18.1554739 104.684907,19.7500008 106.5603,19.7500008 Z M145.2066,13.7465843 C144.900327,13.650279 144.57442,13.5983614 144.2364,13.5983614 C142.450311,13.5983614 141.0024,15.0479314 141.0024,16.8360662 L141.0024,17.9092585 L141.0024,18.7431208 L141.0024,23.9234487 L135.828,23.9234487 L135.828,18.7431208 L135.828,13.5627925 L135.828,8.70623491 L141.0024,8.70623491 L141.0024,10.5825464 C142.00626,9.34056396 143.509647,8.5199025 145.2066,8.42687487 L145.2066,13.7465843 Z M16.6135011,-9.76996262e-14 L21.1699441,4.57880651 L16.6135011,9.15761269 L12.0570577,4.57880651 L16.6135011,-9.76996262e-14 Z M8.75945296,8.65459342 L13.2366656,12.6720086 C11.9049717,14.5175544 10.6832147,16.4484267 9.58105422,18.454919 L23.8765476,18.454919 C22.7493874,16.4029143 21.4971434,14.429999 20.1301481,12.5465549 L24.5164336,8.61072874 C28.1396672,13.237457 31.1165186,18.3993728 33.3102,23.9590175 L26.517521,23.9590175 L6.94008121,23.9590175 L0,23.9590175 C2.18675674,18.416936 5.15173807,13.2700748 8.75945329,8.65459342 Z"/>
  </g>
</svg>
