<svg xmlns="http://www.w3.org/2000/svg" xmlns:xlink="http://www.w3.org/1999/xlink" viewBox="0 0 42 32">
  <defs>
    <path id="midgard-logheziolo-a" d="M15.0039323,6.10500008 L20.975642,12.1717309 L26.9473518,6.10500008 L20.975642,0.0387331895 L15.0039323,6.10500008 Z M0.0173516571,31.7823215 L8.33587307,31.7823215 L33.8062792,31.7823215 L41.8369001,31.7823215 C39.115658,24.3928639 35.3690699,17.5122723 30.7727073,11.3189049 L30.7727073,11.3189049 L25.403511,16.7728627 C27.0902747,19.1017247 28.6457594,21.5347256 30.058093,24.0607326 L30.058093,24.0607326 L12.045703,24.0607326 C13.4310959,21.5588469 14.9566718,19.1474159 16.6105587,16.8368768 L16.6105587,16.8368768 L11.1235538,11.2632404 C6.5084696,17.4712198 2.74681299,24.3708301 0.0173516571,31.7823215 L0.0173516571,31.7823215 Z"/>
  </defs>
  <g fill="none" fill-rule="evenodd">
    <mask id="midgard-logheziolo-b" fill="#fff">
      <use xlink:href="#midgard-logheziolo-a"/>
    </mask>
    <polygon fill="#7596c5" points="-2.094 33.927 43.949 33.927 43.949 -2.106 -2.094 -2.106" mask="url(#midgard-logheziolo-b)"/>
  </g>
</svg>
