<svg xmlns="http://www.w3.org/2000/svg" width="503" height="96" viewBox="0 0 503 96">
  <path fill="#7596c5" fill-rule="evenodd" d="M410.992935,50.918407 L411,50.918407 L411,73.815938 L398,73.815938 L398,69.497499 C394.249691,72.581347 389.66052,74.084779 385.44255,74.084779 C371.635431,74.084779 361,63.891328 361,50.420635 C361,36.949942 372.192881,26.029787 386,26.029787 C399.807119,26.029787 411,36.949942 411,50.420635 C411,50.593729 410.997625,50.759516 410.992935,50.918407 Z M386.5,60.873855 C392.29899,60.873855 397,55.970929 397,49.922862 C397,43.874796 392.29899,38.97187 386.5,38.97187 C380.70101,38.97187 376,43.874796 376,49.922862 C376,55.970929 380.70101,60.873855 386.5,60.873855 Z M228.313708,23.654486 L217,12.327816 L228.313708,1.001146 L239.627417,12.327816 L228.313708,23.654486 Z M210,58.101061 L210,74.119392 L194,74.119392 L194,65.675083 L194,47.198442 C194,42.775102 190.418278,39.189277 186,39.189277 C181.581722,39.189277 178,42.775102 178,47.198442 L178,62.072497 L178,74.119392 L162,74.119392 L162,62.105644 L162,47.198442 C162,42.775102 158.418278,39.189277 154,39.189277 C149.581722,39.189277 146,42.775102 146,47.198442 L146,55.522637 L146,58.101061 L146,74.119392 L130,74.119392 L130,58.101061 L130,42.082731 L130,27.065546 L146,27.065546 L146,32.867374 C149.299911,28.784704 154.345468,26.174383 160,26.174383 C165.920867,26.174383 171.174041,29.036393 174.454551,33.453949 C178.12131,28.924819 183.722957,26.029787 190,26.029787 C201.045695,26.029787 210,34.994351 210,46.0527 C210,46.06424 209.99999,46.075778 209.999971,46.087313 L210,58.101061 Z M221,58.066448 L221,42.048118 L221,27.030933 L237,27.030933 L237,42.048118 L237,58.066448 L237,74.084779 L221,74.084779 L221,58.066448 Z M289.5,74.084779 L283,74.084779 L283,69.742045 C279.249691,72.843242 274.66052,74.355133 270.44255,74.355133 C256.635431,74.355133 246,64.104334 246,50.557856 C246,37.011378 257.192881,26.029787 271,26.029787 C275.348672,26.029787 279.438015,27.11915 283,29.034907 L283,27.030933 L283,12.013748 L296,12.013748 L296,27.030933 L296,42.048118 L296,58.066448 L296,74.084779 L289.5,74.084779 Z M271.5,61.069885 C277.29899,61.069885 282,56.139375 282,50.057283 C282,43.975191 277.29899,39.044681 271.5,39.044681 C265.70101,39.044681 261,43.975191 261,50.057283 C261,56.139375 265.70101,61.069885 271.5,61.069885 Z M496.5,74.084779 L490,74.084779 L490,69.742045 C486.249691,72.843242 481.66052,74.355133 477.44255,74.355133 C463.635431,74.355133 453,64.104334 453,50.557856 C453,37.011378 464.192881,26.029787 478,26.029787 C482.348672,26.029787 486.438015,27.11915 490,29.034907 L490,27.030933 L490,12.013748 L503,12.013748 L503,27.030933 L503,42.048118 L503,58.066448 L503,74.084779 L496.5,74.084779 Z M478.5,61.069885 C484.29899,61.069885 489,56.139375 489,50.057283 C489,43.975191 484.29899,39.044681 478.5,39.044681 C472.70101,39.044681 468,43.975191 468,50.057283 C468,56.139375 472.70101,61.069885 478.5,61.069885 Z M340,29.827233 L340,26.029787 L355,26.029787 L355,48.054992 L354.999672,78.089362 C354.940561,87.991264 347.904481,96 338,96 C335.126316,96 328.409917,94.759135 326,93.560142 L326,80.646533 C326.909255,81.140745 331.926403,81.983961 333,81.983961 C336.569665,81.983961 339.515257,78.926774 339.945843,74.975941 L340,74.975941 L340,69.890115 C336.476859,72.824532 332.507727,74.355133 328.44255,74.355133 C314.635431,74.355133 304,64.104334 304,50.557856 C304,37.011378 315.192881,26.029787 329,26.029787 C333.329549,26.029787 337.000427,27.454134 340,29.827233 Z M329.5,61.069885 C335.29899,61.069885 340,56.139375 340,50.057283 C340,43.975191 335.29899,39.044681 329.5,39.044681 C323.70101,39.044681 319,43.975191 319,50.057283 C319,56.139375 323.70101,61.069885 329.5,61.069885 Z M449,42.506445 C448.052959,42.208655 447.045206,42.048118 446,42.048118 C440.477153,42.048118 436,46.5304 436,52.059574 L436,55.378041 L436,57.956465 L436,73.974795 L420,73.974795 L420,57.956465 L420,41.938134 L420,26.920949 L436,26.920949 L436,32.722778 C439.104083,28.882387 443.752775,26.344782 449,26.057127 L449,42.506445 Z M51.37137,-9.76996262e-14 L65.460557,14.158338 L51.37137,28.316675 L37.282182,14.158338 L51.37137,-9.76996262e-14 Z M27.085507,26.761266 L40.929702,39.1837 C36.81191,44.890397 33.034059,50.860936 29.626018,57.065303 L73.82977,57.065303 C70.344426,50.720205 66.472305,44.619663 62.245356,38.795779 L75.808391,26.62563 C87.011958,40.932149 96.216817,56.893546 103,74.084779 L81.996045,74.084779 L21.459744,74.084779 L0,74.084779 C6.761771,56.947854 15.929926,41.033008 27.085508,26.761266 Z"/>
</svg>
