<?xml version="1.0" encoding="UTF-8" standalone="no"?>
<!DOCTYPE svg PUBLIC "-//W3C//DTD SVG 1.1//EN"
 "http://www.w3.org/Graphics/SVG/1.1/DTD/svg11.dtd">
<!-- Generated by graphviz version 2.40.1 (20161225.0304)
 -->
<!-- Title: dependencies Pages: 1 -->
<svg width="2022pt" height="284pt"
 viewBox="0.00 0.00 2022.00 284.00" xmlns="http://www.w3.org/2000/svg" xmlns:xlink="http://www.w3.org/1999/xlink">
<g id="graph0" class="graph" transform="scale(1 1) rotate(0) translate(4 280)">
<title>dependencies</title>
<polygon fill="#ffffff" stroke="transparent" points="-4,4 -4,-280 2018,-280 2018,4 -4,4"/>
<text text-anchor="start" x="986.0091" y="-42.4" font-family="sans-serif" font-weight="bold" font-size="14.00" fill="#000000">Legend</text>
<polygon fill="#ffffb3" stroke="transparent" points="773,-10 773,-30 793,-30 793,-10 773,-10"/>
<text text-anchor="start" x="796.629" y="-15.4" font-family="sans-serif" font-size="14.00" fill="#000000"> &#160;Declarations</text>
<polygon fill="#8dd3c7" stroke="transparent" points="886,-10 886,-30 906,-30 906,-10 886,-10"/>
<text text-anchor="start" x="909.7251" y="-15.4" font-family="sans-serif" font-size="14.00" fill="#000000"> &#160;Module</text>
<polygon fill="#80b1d3" stroke="transparent" points="972,-10 972,-30 992,-30 992,-10 972,-10"/>
<text text-anchor="start" x="995.7812" y="-15.4" font-family="sans-serif" font-size="14.00" fill="#000000"> &#160;Bootstrap</text>
<polygon fill="#fdb462" stroke="transparent" points="1069,-10 1069,-30 1089,-30 1089,-10 1069,-10"/>
<text text-anchor="start" x="1092.6732" y="-15.4" font-family="sans-serif" font-size="14.00" fill="#000000"> &#160;Providers</text>
<polygon fill="#fb8072" stroke="transparent" points="1165,-10 1165,-30 1185,-30 1185,-10 1165,-10"/>
<text text-anchor="start" x="1188.7258" y="-15.4" font-family="sans-serif" font-size="14.00" fill="#000000"> &#160;Exports</text>
<g id="clust1" class="cluster">
<title>cluster_MidgardModule</title>
<polygon fill="none" stroke="#000000" stroke-dasharray="1,5" points="8,-70 8,-268 2006,-268 2006,-70 8,-70"/>
</g>
<g id="clust2" class="cluster">
<title>cluster_MidgardModule_declarations</title>
<polygon fill="none" stroke="#000000" points="918,-78 918,-130 1998,-130 1998,-78 918,-78"/>
</g>
<g id="clust10" class="cluster">
<title>cluster_MidgardModule_imports</title>
<polygon fill="none" stroke="#000000" points="16,-78 16,-130 910,-130 910,-78 16,-78"/>
</g>
<g id="clust11" class="cluster">
<title>cluster_MidgardModule_exports</title>
<polygon fill="none" stroke="#000000" points="940,-208 940,-260 1090,-260 1090,-208 940,-208"/>
</g>
<!-- LoginComponent -->
<g id="node1" class="node">
<title>LoginComponent</title>
<polygon fill="#ffffb3" stroke="#000000" points="1990.2758,-122 1875.7242,-122 1875.7242,-86 1990.2758,-86 1990.2758,-122"/>
<text text-anchor="middle" x="1933" y="-99.8" font-family="Times,serif" font-size="14.00" fill="#000000">LoginComponent</text>
</g>
<!-- MidgardModule -->
<g id="node8" class="node">
<title>MidgardModule</title>
<polygon fill="#8dd3c7" stroke="#000000" points="1068.7605,-187 1065.7605,-191 1044.7605,-191 1041.7605,-187 961.2395,-187 961.2395,-151 1068.7605,-151 1068.7605,-187"/>
<text text-anchor="middle" x="1015" y="-164.8" font-family="Times,serif" font-size="14.00" fill="#000000">MidgardModule</text>
</g>
<!-- LoginComponent&#45;&gt;MidgardModule -->
<g id="edge1" class="edge">
<title>LoginComponent&#45;&gt;MidgardModule</title>
<path fill="none" stroke="#000000" d="M1933,-122.0908C1933,-145.1328 1933,-182 1933,-182 1933,-182 1078.9979,-182 1078.9979,-182"/>
<polygon fill="#000000" stroke="#000000" points="1078.9979,-178.5001 1068.9979,-182 1078.9978,-185.5001 1078.9979,-178.5001"/>
</g>
<!-- MidgardComponent -->
<g id="node2" class="node">
<title>MidgardComponent</title>
<polygon fill="#ffffb3" stroke="#000000" points="1857.5436,-122 1728.4564,-122 1728.4564,-86 1857.5436,-86 1857.5436,-122"/>
<text text-anchor="middle" x="1793" y="-99.8" font-family="Times,serif" font-size="14.00" fill="#000000">MidgardComponent</text>
</g>
<!-- MidgardComponent&#45;&gt;MidgardModule -->
<g id="edge2" class="edge">
<title>MidgardComponent&#45;&gt;MidgardModule</title>
<path fill="none" stroke="#000000" d="M1793,-122.0449C1793,-143.6623 1793,-177 1793,-177 1793,-177 1078.782,-177 1078.782,-177"/>
<polygon fill="#000000" stroke="#000000" points="1078.7821,-173.5001 1068.782,-177 1078.782,-180.5001 1078.7821,-173.5001"/>
</g>
<!-- NavBarComponent -->
<g id="node3" class="node">
<title>NavBarComponent</title>
<polygon fill="#ffffb3" stroke="#000000" points="1710.3655,-122 1585.6345,-122 1585.6345,-86 1710.3655,-86 1710.3655,-122"/>
<text text-anchor="middle" x="1648" y="-99.8" font-family="Times,serif" font-size="14.00" fill="#000000">NavBarComponent</text>
</g>
<!-- NavBarComponent&#45;&gt;MidgardModule -->
<g id="edge3" class="edge">
<title>NavBarComponent&#45;&gt;MidgardModule</title>
<path fill="none" stroke="#000000" d="M1648,-122.2228C1648,-142.3652 1648,-172 1648,-172 1648,-172 1078.9692,-172 1078.9692,-172"/>
<polygon fill="#000000" stroke="#000000" points="1078.9693,-168.5001 1068.9692,-172 1078.9692,-175.5001 1078.9693,-168.5001"/>
</g>
<!-- TopBarComponent -->
<g id="node4" class="node">
<title>TopBarComponent</title>
<polygon fill="#ffffb3" stroke="#000000" points="1568.0968,-122 1443.9032,-122 1443.9032,-86 1568.0968,-86 1568.0968,-122"/>
<text text-anchor="middle" x="1506" y="-99.8" font-family="Times,serif" font-size="14.00" fill="#000000">TopBarComponent</text>
</g>
<!-- TopBarComponent&#45;&gt;MidgardModule -->
<g id="edge4" class="edge">
<title>TopBarComponent&#45;&gt;MidgardModule</title>
<path fill="none" stroke="#000000" d="M1506,-122.2222C1506,-140.8285 1506,-167 1506,-167 1506,-167 1078.9501,-167 1078.9501,-167"/>
<polygon fill="#000000" stroke="#000000" points="1078.9502,-163.5001 1068.9501,-167 1078.9501,-170.5001 1078.9502,-163.5001"/>
</g>
<!-- UserComponent -->
<g id="node5" class="node">
<title>UserComponent</title>
<polygon fill="#ffffb3" stroke="#000000" points="1425.7591,-122 1318.2409,-122 1318.2409,-86 1425.7591,-86 1425.7591,-122"/>
<text text-anchor="middle" x="1372" y="-99.8" font-family="Times,serif" font-size="14.00" fill="#000000">UserComponent</text>
</g>
<!-- UserComponent&#45;&gt;MidgardModule -->
<g id="edge5" class="edge">
<title>UserComponent&#45;&gt;MidgardModule</title>
<path fill="none" stroke="#000000" d="M1372,-122.0336C1372,-139.0597 1372,-162 1372,-162 1372,-162 1078.833,-162 1078.833,-162"/>
<polygon fill="#000000" stroke="#000000" points="1078.8331,-158.5001 1068.833,-162 1078.833,-165.5001 1078.8331,-158.5001"/>
</g>
<!-- WorkflowLevel1Component -->
<g id="node6" class="node">
<title>WorkflowLevel1Component</title>
<polygon fill="#ffffb3" stroke="#000000" points="1299.738,-122 1122.262,-122 1122.262,-86 1299.738,-86 1299.738,-122"/>
<text text-anchor="middle" x="1211" y="-99.8" font-family="Times,serif" font-size="14.00" fill="#000000">WorkflowLevel1Component</text>
</g>
<!-- WorkflowLevel1Component&#45;&gt;MidgardModule -->
<g id="edge6" class="edge">
<title>WorkflowLevel1Component&#45;&gt;MidgardModule</title>
<path fill="none" stroke="#000000" d="M1211,-122.2396C1211,-137.5706 1211,-157 1211,-157 1211,-157 1078.8171,-157 1078.8171,-157"/>
<polygon fill="#000000" stroke="#000000" points="1078.8171,-153.5001 1068.8171,-157 1078.8171,-160.5001 1078.8171,-153.5001"/>
</g>
<!-- WorkflowLevel2Component -->
<g id="node7" class="node">
<title>WorkflowLevel2Component</title>
<polygon fill="#ffffb3" stroke="#000000" points="1103.738,-122 926.262,-122 926.262,-86 1103.738,-86 1103.738,-122"/>
<text text-anchor="middle" x="1015" y="-99.8" font-family="Times,serif" font-size="14.00" fill="#000000">WorkflowLevel2Component</text>
</g>
<!-- WorkflowLevel2Component&#45;&gt;MidgardModule -->
<g id="edge7" class="edge">
<title>WorkflowLevel2Component&#45;&gt;MidgardModule</title>
<path fill="none" stroke="#000000" d="M1015,-122.1061C1015,-122.1061 1015,-140.991 1015,-140.991"/>
<polygon fill="#000000" stroke="#000000" points="1011.5001,-140.9909 1015,-150.991 1018.5001,-140.991 1011.5001,-140.9909"/>
</g>
<!-- MidgardComponent  -->
<g id="node15" class="node">
<title>MidgardComponent </title>
<polygon fill="#fb8072" stroke="#000000" points="1081.5428,-252 948.4572,-252 948.4572,-216 1081.5428,-216 1081.5428,-252"/>
<text text-anchor="middle" x="1015" y="-229.8" font-family="Times,serif" font-size="14.00" fill="#000000">MidgardComponent </text>
</g>
<!-- MidgardModule&#45;&gt;MidgardComponent  -->
<g id="edge14" class="edge">
<title>MidgardModule&#45;&gt;MidgardComponent </title>
<path fill="none" stroke="#000000" stroke-dasharray="5,2" d="M1015,-187.1061C1015,-187.1061 1015,-205.991 1015,-205.991"/>
<polygon fill="#000000" stroke="#000000" points="1011.5001,-205.9909 1015,-215.991 1018.5001,-205.991 1011.5001,-205.9909"/>
</g>
<!-- CrudModule -->
<g id="node9" class="node">
<title>CrudModule</title>
<polygon fill="#8dd3c7" stroke="#000000" points="901.5482,-122 898.5482,-126 877.5482,-126 874.5482,-122 814.4518,-122 814.4518,-86 901.5482,-86 901.5482,-122"/>
<text text-anchor="middle" x="858" y="-99.8" font-family="Times,serif" font-size="14.00" fill="#000000">CrudModule</text>
</g>
<!-- CrudModule&#45;&gt;MidgardModule -->
<g id="edge8" class="edge">
<title>CrudModule&#45;&gt;MidgardModule</title>
<path fill="none" stroke="#000000" d="M858,-122.2396C858,-137.5706 858,-157 858,-157 858,-157 950.9695,-157 950.9695,-157"/>
<polygon fill="#000000" stroke="#000000" points="950.9695,-160.5001 960.9695,-157 950.9695,-153.5001 950.9695,-160.5001"/>
</g>
<!-- GraphQLModule -->
<g id="node10" class="node">
<title>GraphQLModule</title>
<polygon fill="#8dd3c7" stroke="#000000" points="796.691,-122 793.691,-126 772.691,-126 769.691,-122 683.309,-122 683.309,-86 796.691,-86 796.691,-122"/>
<text text-anchor="middle" x="740" y="-99.8" font-family="Times,serif" font-size="14.00" fill="#000000">GraphQLModule</text>
</g>
<!-- GraphQLModule&#45;&gt;MidgardModule -->
<g id="edge9" class="edge">
<title>GraphQLModule&#45;&gt;MidgardModule</title>
<path fill="none" stroke="#000000" d="M740,-122.0336C740,-139.0597 740,-162 740,-162 740,-162 950.997,-162 950.997,-162"/>
<polygon fill="#000000" stroke="#000000" points="950.997,-165.5001 960.997,-162 950.9969,-158.5001 950.997,-165.5001"/>
</g>
<!-- MidgardHttpModule -->
<g id="node11" class="node">
<title>MidgardHttpModule</title>
<polygon fill="#8dd3c7" stroke="#000000" points="665.1485,-122 662.1485,-126 641.1485,-126 638.1485,-122 532.8515,-122 532.8515,-86 665.1485,-86 665.1485,-122"/>
<text text-anchor="middle" x="599" y="-99.8" font-family="Times,serif" font-size="14.00" fill="#000000">MidgardHttpModule</text>
</g>
<!-- MidgardHttpModule&#45;&gt;MidgardModule -->
<g id="edge10" class="edge">
<title>MidgardHttpModule&#45;&gt;MidgardModule</title>
<path fill="none" stroke="#000000" d="M599,-122.2222C599,-140.8285 599,-167 599,-167 599,-167 951.0417,-167 951.0417,-167"/>
<polygon fill="#000000" stroke="#000000" points="951.0418,-170.5001 961.0417,-167 951.0417,-163.5001 951.0418,-170.5001"/>
</g>
<!-- MidgardRoutingModule -->
<g id="node12" class="node">
<title>MidgardRoutingModule</title>
<polygon fill="#8dd3c7" stroke="#000000" points="514.378,-122 511.378,-126 490.378,-126 487.378,-122 361.622,-122 361.622,-86 514.378,-86 514.378,-122"/>
<text text-anchor="middle" x="438" y="-99.8" font-family="Times,serif" font-size="14.00" fill="#000000">MidgardRoutingModule</text>
</g>
<!-- MidgardRoutingModule&#45;&gt;MidgardModule -->
<g id="edge11" class="edge">
<title>MidgardRoutingModule&#45;&gt;MidgardModule</title>
<path fill="none" stroke="#000000" d="M438,-122.2228C438,-142.3652 438,-172 438,-172 438,-172 951.2354,-172 951.2354,-172"/>
<polygon fill="#000000" stroke="#000000" points="951.2354,-175.5001 961.2354,-172 951.2353,-168.5001 951.2354,-175.5001"/>
</g>
<!-- MidgardTranslationModule -->
<g id="node13" class="node">
<title>MidgardTranslationModule</title>
<polygon fill="#8dd3c7" stroke="#000000" points="343.5197,-122 340.5197,-126 319.5197,-126 316.5197,-122 172.4803,-122 172.4803,-86 343.5197,-86 343.5197,-122"/>
<text text-anchor="middle" x="258" y="-99.8" font-family="Times,serif" font-size="14.00" fill="#000000">MidgardTranslationModule</text>
</g>
<!-- MidgardTranslationModule&#45;&gt;MidgardModule -->
<g id="edge12" class="edge">
<title>MidgardTranslationModule&#45;&gt;MidgardModule</title>
<path fill="none" stroke="#000000" d="M258,-122.0449C258,-143.6623 258,-177 258,-177 258,-177 951.1653,-177 951.1653,-177"/>
<polygon fill="#000000" stroke="#000000" points="951.1653,-180.5001 961.1653,-177 951.1653,-173.5001 951.1653,-180.5001"/>
</g>
<!-- MigardStoreModule -->
<g id="node14" class="node">
<title>MigardStoreModule</title>
<polygon fill="#8dd3c7" stroke="#000000" points="154.309,-122 151.309,-126 130.309,-126 127.309,-122 23.691,-122 23.691,-86 154.309,-86 154.309,-122"/>
<text text-anchor="middle" x="89" y="-99.8" font-family="Times,serif" font-size="14.00" fill="#000000">MigardStoreModule</text>
</g>
<!-- MigardStoreModule&#45;&gt;MidgardModule -->
<g id="edge13" class="edge">
<title>MigardStoreModule&#45;&gt;MidgardModule</title>
<path fill="none" stroke="#000000" d="M89,-122.0908C89,-145.1328 89,-182 89,-182 89,-182 951.2118,-182 951.2118,-182"/>
<polygon fill="#000000" stroke="#000000" points="951.2119,-185.5001 961.2118,-182 951.2118,-178.5001 951.2119,-185.5001"/>
</g>
</g>
</svg>
