<?xml version="1.0" encoding="UTF-8" standalone="no"?>
<!DOCTYPE svg PUBLIC "-//W3C//DTD SVG 1.1//EN"
 "http://www.w3.org/Graphics/SVG/1.1/DTD/svg11.dtd">
<!-- Generated by graphviz version 2.40.1 (20161225.0304)
 -->
<!-- Title: dependencies Pages: 1 -->
<svg width="1851pt" height="284pt"
 viewBox="0.00 0.00 1851.00 284.00" xmlns="http://www.w3.org/2000/svg" xmlns:xlink="http://www.w3.org/1999/xlink">
<g id="graph0" class="graph" transform="scale(1 1) rotate(0) translate(4 280)">
<title>dependencies</title>
<polygon fill="#ffffff" stroke="transparent" points="-4,4 -4,-280 1847,-280 1847,4 -4,4"/>
<text text-anchor="start" x="900.5091" y="-42.4" font-family="sans-serif" font-weight="bold" font-size="14.00" fill="#000000">Legend</text>
<polygon fill="#ffffb3" stroke="transparent" points="687.5,-10 687.5,-30 707.5,-30 707.5,-10 687.5,-10"/>
<text text-anchor="start" x="711.129" y="-15.4" font-family="sans-serif" font-size="14.00" fill="#000000"> &#160;Declarations</text>
<polygon fill="#8dd3c7" stroke="transparent" points="800.5,-10 800.5,-30 820.5,-30 820.5,-10 800.5,-10"/>
<text text-anchor="start" x="824.2251" y="-15.4" font-family="sans-serif" font-size="14.00" fill="#000000"> &#160;Module</text>
<polygon fill="#80b1d3" stroke="transparent" points="886.5,-10 886.5,-30 906.5,-30 906.5,-10 886.5,-10"/>
<text text-anchor="start" x="910.2812" y="-15.4" font-family="sans-serif" font-size="14.00" fill="#000000"> &#160;Bootstrap</text>
<polygon fill="#fdb462" stroke="transparent" points="983.5,-10 983.5,-30 1003.5,-30 1003.5,-10 983.5,-10"/>
<text text-anchor="start" x="1007.1732" y="-15.4" font-family="sans-serif" font-size="14.00" fill="#000000"> &#160;Providers</text>
<polygon fill="#fb8072" stroke="transparent" points="1079.5,-10 1079.5,-30 1099.5,-30 1099.5,-10 1079.5,-10"/>
<text text-anchor="start" x="1103.2258" y="-15.4" font-family="sans-serif" font-size="14.00" fill="#000000"> &#160;Exports</text>
<g id="clust1" class="cluster">
<title>cluster_MidgardModule</title>
<polygon fill="none" stroke="#000000" stroke-dasharray="1,5" points="8,-70 8,-268 1835,-268 1835,-70 8,-70"/>
</g>
<g id="clust2" class="cluster">
<title>cluster_MidgardModule_declarations</title>
<polygon fill="none" stroke="#000000" points="747,-78 747,-130 1827,-130 1827,-78 747,-78"/>
</g>
<g id="clust10" class="cluster">
<title>cluster_MidgardModule_imports</title>
<polygon fill="none" stroke="#000000" points="16,-78 16,-130 739,-130 739,-78 16,-78"/>
</g>
<g id="clust11" class="cluster">
<title>cluster_MidgardModule_exports</title>
<polygon fill="none" stroke="#000000" points="867,-208 867,-260 1017,-260 1017,-208 867,-208"/>
</g>
<!-- LoginComponent -->
<g id="node1" class="node">
<title>LoginComponent</title>
<polygon fill="#ffffb3" stroke="#000000" points="1819.2758,-122 1704.7242,-122 1704.7242,-86 1819.2758,-86 1819.2758,-122"/>
<text text-anchor="middle" x="1762" y="-99.8" font-family="Times,serif" font-size="14.00" fill="#000000">LoginComponent</text>
</g>
<!-- MidgardModule -->
<g id="node8" class="node">
<title>MidgardModule</title>
<polygon fill="#8dd3c7" stroke="#000000" points="995.7605,-187 992.7605,-191 971.7605,-191 968.7605,-187 888.2395,-187 888.2395,-151 995.7605,-151 995.7605,-187"/>
<text text-anchor="middle" x="942" y="-164.8" font-family="Times,serif" font-size="14.00" fill="#000000">MidgardModule</text>
</g>
<!-- LoginComponent&#45;&gt;MidgardModule -->
<g id="edge1" class="edge">
<title>LoginComponent&#45;&gt;MidgardModule</title>
<path fill="none" stroke="#000000" d="M1762,-122.2479C1762,-145.0179 1762,-181 1762,-181 1762,-181 1005.8025,-181 1005.8025,-181"/>
<polygon fill="#000000" stroke="#000000" points="1005.8025,-177.5001 995.8025,-181 1005.8025,-184.5001 1005.8025,-177.5001"/>
</g>
<!-- MidgardComponent -->
<g id="node2" class="node">
<title>MidgardComponent</title>
<polygon fill="#ffffb3" stroke="#000000" points="1686.5436,-122 1557.4564,-122 1557.4564,-86 1686.5436,-86 1686.5436,-122"/>
<text text-anchor="middle" x="1622" y="-99.8" font-family="Times,serif" font-size="14.00" fill="#000000">MidgardComponent</text>
</g>
<!-- MidgardComponent&#45;&gt;MidgardModule -->
<g id="edge2" class="edge">
<title>MidgardComponent&#45;&gt;MidgardModule</title>
<path fill="none" stroke="#000000" d="M1622,-122.2843C1622,-143.3211 1622,-175 1622,-175 1622,-175 1005.9268,-175 1005.9268,-175"/>
<polygon fill="#000000" stroke="#000000" points="1005.9269,-171.5001 995.9268,-175 1005.9268,-178.5001 1005.9269,-171.5001"/>
</g>
<!-- NavBarComponent -->
<g id="node3" class="node">
<title>NavBarComponent</title>
<polygon fill="#ffffb3" stroke="#000000" points="1539.3655,-122 1414.6345,-122 1414.6345,-86 1539.3655,-86 1539.3655,-122"/>
<text text-anchor="middle" x="1477" y="-99.8" font-family="Times,serif" font-size="14.00" fill="#000000">NavBarComponent</text>
</g>
<!-- NavBarComponent&#45;&gt;MidgardModule -->
<g id="edge3" class="edge">
<title>NavBarComponent&#45;&gt;MidgardModule</title>
<path fill="none" stroke="#000000" d="M1477,-122.1061C1477,-141.3391 1477,-169 1477,-169 1477,-169 1006.2428,-169 1006.2428,-169"/>
<polygon fill="#000000" stroke="#000000" points="1006.2429,-165.5001 996.2428,-169 1006.2428,-172.5001 1006.2429,-165.5001"/>
</g>
<!-- TopBarComponent -->
<g id="node4" class="node">
<title>TopBarComponent</title>
<polygon fill="#ffffb3" stroke="#000000" points="1397.0968,-122 1272.9032,-122 1272.9032,-86 1397.0968,-86 1397.0968,-122"/>
<text text-anchor="middle" x="1335" y="-99.8" font-family="Times,serif" font-size="14.00" fill="#000000">TopBarComponent</text>
</g>
<!-- TopBarComponent&#45;&gt;MidgardModule -->
<g id="edge4" class="edge">
<title>TopBarComponent&#45;&gt;MidgardModule</title>
<path fill="none" stroke="#000000" d="M1335,-122.0225C1335,-139.3734 1335,-163 1335,-163 1335,-163 1005.8209,-163 1005.8209,-163"/>
<polygon fill="#000000" stroke="#000000" points="1005.821,-159.5001 995.8209,-163 1005.8209,-166.5001 1005.821,-159.5001"/>
</g>
<!-- UserComponent -->
<g id="node5" class="node">
<title>UserComponent</title>
<polygon fill="#ffffb3" stroke="#000000" points="1254.7591,-122 1147.2409,-122 1147.2409,-86 1254.7591,-86 1254.7591,-122"/>
<text text-anchor="middle" x="1201" y="-99.8" font-family="Times,serif" font-size="14.00" fill="#000000">UserComponent</text>
</g>
<!-- UserComponent&#45;&gt;MidgardModule -->
<g id="edge5" class="edge">
<title>UserComponent&#45;&gt;MidgardModule</title>
<path fill="none" stroke="#000000" d="M1201,-122.2396C1201,-137.5706 1201,-157 1201,-157 1201,-157 1005.9796,-157 1005.9796,-157"/>
<polygon fill="#000000" stroke="#000000" points="1005.9797,-153.5001 995.9796,-157 1005.9796,-160.5001 1005.9797,-153.5001"/>
</g>
<!-- WorkflowLevel1Component -->
<g id="node6" class="node">
<title>WorkflowLevel1Component</title>
<polygon fill="#ffffb3" stroke="#000000" points="1128.738,-122 951.262,-122 951.262,-86 1128.738,-86 1128.738,-122"/>
<text text-anchor="middle" x="1040" y="-99.8" font-family="Times,serif" font-size="14.00" fill="#000000">WorkflowLevel1Component</text>
</g>
<!-- WorkflowLevel1Component&#45;&gt;MidgardModule -->
<g id="edge6" class="edge">
<title>WorkflowLevel1Component&#45;&gt;MidgardModule</title>
<path fill="none" stroke="#000000" d="M973.5056,-122.1061C973.5056,-122.1061 973.5056,-140.991 973.5056,-140.991"/>
<polygon fill="#000000" stroke="#000000" points="970.0057,-140.9909 973.5056,-150.991 977.0057,-140.991 970.0057,-140.9909"/>
</g>
<!-- WorkflowLevel2Component -->
<g id="node7" class="node">
<title>WorkflowLevel2Component</title>
<polygon fill="#ffffb3" stroke="#000000" points="932.738,-122 755.262,-122 755.262,-86 932.738,-86 932.738,-122"/>
<text text-anchor="middle" x="844" y="-99.8" font-family="Times,serif" font-size="14.00" fill="#000000">WorkflowLevel2Component</text>
</g>
<!-- WorkflowLevel2Component&#45;&gt;MidgardModule -->
<g id="edge7" class="edge">
<title>WorkflowLevel2Component&#45;&gt;MidgardModule</title>
<path fill="none" stroke="#000000" d="M910.4944,-122.1061C910.4944,-122.1061 910.4944,-140.991 910.4944,-140.991"/>
<polygon fill="#000000" stroke="#000000" points="906.9945,-140.9909 910.4944,-150.991 913.9945,-140.991 906.9945,-140.9909"/>
</g>
<!-- MidgardComponent  -->
<g id="node14" class="node">
<title>MidgardComponent </title>
<polygon fill="#fb8072" stroke="#000000" points="1008.5428,-252 875.4572,-252 875.4572,-216 1008.5428,-216 1008.5428,-252"/>
<text text-anchor="middle" x="942" y="-229.8" font-family="Times,serif" font-size="14.00" fill="#000000">MidgardComponent </text>
</g>
<!-- MidgardModule&#45;&gt;MidgardComponent  -->
<g id="edge13" class="edge">
<title>MidgardModule&#45;&gt;MidgardComponent </title>
<path fill="none" stroke="#000000" stroke-dasharray="5,2" d="M942,-187.1061C942,-187.1061 942,-205.991 942,-205.991"/>
<polygon fill="#000000" stroke="#000000" points="938.5001,-205.9909 942,-215.991 945.5001,-205.991 938.5001,-205.9909"/>
</g>
<!-- CrudModule -->
<g id="node9" class="node">
<title>CrudModule</title>
<polygon fill="#8dd3c7" stroke="#000000" points="730.5482,-122 727.5482,-126 706.5482,-126 703.5482,-122 643.4518,-122 643.4518,-86 730.5482,-86 730.5482,-122"/>
<text text-anchor="middle" x="687" y="-99.8" font-family="Times,serif" font-size="14.00" fill="#000000">CrudModule</text>
</g>
<!-- CrudModule&#45;&gt;MidgardModule -->
<g id="edge8" class="edge">
<title>CrudModule&#45;&gt;MidgardModule</title>
<path fill="none" stroke="#000000" d="M687,-122.2396C687,-137.5706 687,-157 687,-157 687,-157 878.2326,-157 878.2326,-157"/>
<polygon fill="#000000" stroke="#000000" points="878.2327,-160.5001 888.2326,-157 878.2326,-153.5001 878.2327,-160.5001"/>
</g>
<!-- GraphQLModule -->
<g id="node10" class="node">
<title>GraphQLModule</title>
<polygon fill="#8dd3c7" stroke="#000000" points="625.691,-122 622.691,-126 601.691,-126 598.691,-122 512.309,-122 512.309,-86 625.691,-86 625.691,-122"/>
<text text-anchor="middle" x="569" y="-99.8" font-family="Times,serif" font-size="14.00" fill="#000000">GraphQLModule</text>
</g>
<!-- GraphQLModule&#45;&gt;MidgardModule -->
<g id="edge9" class="edge">
<title>GraphQLModule&#45;&gt;MidgardModule</title>
<path fill="none" stroke="#000000" d="M569,-122.0225C569,-139.3734 569,-163 569,-163 569,-163 878.161,-163 878.161,-163"/>
<polygon fill="#000000" stroke="#000000" points="878.161,-166.5001 888.161,-163 878.1609,-159.5001 878.161,-166.5001"/>
</g>
<!-- MidgardHttpModule -->
<g id="node11" class="node">
<title>MidgardHttpModule</title>
<polygon fill="#8dd3c7" stroke="#000000" points="494.1485,-122 491.1485,-126 470.1485,-126 467.1485,-122 361.8515,-122 361.8515,-86 494.1485,-86 494.1485,-122"/>
<text text-anchor="middle" x="428" y="-99.8" font-family="Times,serif" font-size="14.00" fill="#000000">MidgardHttpModule</text>
</g>
<!-- MidgardHttpModule&#45;&gt;MidgardModule -->
<g id="edge10" class="edge">
<title>MidgardHttpModule&#45;&gt;MidgardModule</title>
<path fill="none" stroke="#000000" d="M428,-122.1061C428,-141.3391 428,-169 428,-169 428,-169 877.9645,-169 877.9645,-169"/>
<polygon fill="#000000" stroke="#000000" points="877.9645,-172.5001 887.9645,-169 877.9644,-165.5001 877.9645,-172.5001"/>
</g>
<!-- MidgardTranslationModule -->
<g id="node12" class="node">
<title>MidgardTranslationModule</title>
<polygon fill="#8dd3c7" stroke="#000000" points="343.5197,-122 340.5197,-126 319.5197,-126 316.5197,-122 172.4803,-122 172.4803,-86 343.5197,-86 343.5197,-122"/>
<text text-anchor="middle" x="258" y="-99.8" font-family="Times,serif" font-size="14.00" fill="#000000">MidgardTranslationModule</text>
</g>
<!-- MidgardTranslationModule&#45;&gt;MidgardModule -->
<g id="edge11" class="edge">
<title>MidgardTranslationModule&#45;&gt;MidgardModule</title>
<path fill="none" stroke="#000000" d="M258,-122.2843C258,-143.3211 258,-175 258,-175 258,-175 878.0421,-175 878.0421,-175"/>
<polygon fill="#000000" stroke="#000000" points="878.0422,-178.5001 888.0421,-175 878.0421,-171.5001 878.0422,-178.5001"/>
</g>
<!-- MigardStoreModule -->
<g id="node13" class="node">
<title>MigardStoreModule</title>
<polygon fill="#8dd3c7" stroke="#000000" points="154.309,-122 151.309,-126 130.309,-126 127.309,-122 23.691,-122 23.691,-86 154.309,-86 154.309,-122"/>
<text text-anchor="middle" x="89" y="-99.8" font-family="Times,serif" font-size="14.00" fill="#000000">MigardStoreModule</text>
</g>
<!-- MigardStoreModule&#45;&gt;MidgardModule -->
<g id="edge12" class="edge">
<title>MigardStoreModule&#45;&gt;MidgardModule</title>
<path fill="none" stroke="#000000" d="M89,-122.2479C89,-145.0179 89,-181 89,-181 89,-181 877.9939,-181 877.9939,-181"/>
<polygon fill="#000000" stroke="#000000" points="877.9939,-184.5001 887.9939,-181 877.9939,-177.5001 877.9939,-184.5001"/>
</g>
</g>
</svg>
