<?xml version="1.0" standalone="no"?>
<!DOCTYPE svg PUBLIC "-//W3C//DTD SVG 20010904//EN"
 "http://www.w3.org/TR/2001/REC-SVG-20010904/DTD/svg10.dtd">
<svg version="1.0" xmlns="http://www.w3.org/2000/svg"
 width="800.000000pt" height="800.000000pt" viewBox="0 0 800.000000 800.000000"
 preserveAspectRatio="xMidYMid meet">
<metadata>
Created by potrace 1.11, written by Peter Selinger 2001-2013
</metadata>
<g transform="translate(0.000000,800.000000) scale(0.100000,-0.100000)"
fill="#000000" stroke="none">
<path d="M4094 6721 c-109 -105 -920 -935 -922 -944 -1 -7 104 -120 234 -252
635 -647 705 -716 716 -709 11 7 348 346 760 766 l188 191 -93 94 c-352 360
-858 873 -861 873 -1 0 -11 -8 -22 -19z"/>
<path d="M805 5221 c-3 -2 -5 -66 -5 -140 0 -138 4 -154 45 -197 5 -6 21 -26
35 -44 14 -18 30 -38 35 -44 6 -6 22 -27 35 -46 14 -19 32 -42 40 -52 8 -9 21
-24 29 -33 189 -229 316 -379 346 -410 11 -11 40 -42 64 -70 209 -236 470
-505 748 -772 218 -209 254 -242 338 -316 38 -34 81 -73 96 -87 15 -14 55 -50
90 -80 35 -30 76 -66 91 -80 16 -14 47 -41 69 -60 23 -19 51 -44 63 -55 11
-11 44 -38 71 -60 28 -22 52 -42 55 -45 3 -3 21 -19 41 -35 20 -17 58 -49 85
-72 27 -23 117 -96 199 -163 83 -66 157 -126 165 -133 8 -7 44 -35 80 -62 36
-28 70 -54 76 -60 15 -14 57 -47 219 -171 77 -59 142 -111 145 -114 15 -20 41
-12 95 29 33 25 62 48 65 51 3 3 43 35 90 70 104 79 95 71 155 120 28 22 55
44 60 48 17 12 399 326 411 337 6 5 35 30 64 55 29 25 58 50 64 55 6 6 43 37
81 70 39 32 77 66 86 75 9 8 40 36 70 61 30 26 70 62 90 80 20 19 69 63 108
99 244 221 659 627 896 875 69 72 202 215 264 284 13 14 46 50 72 79 27 29 49
57 49 61 0 5 4 11 8 13 9 3 89 91 142 157 19 24 45 55 57 70 13 14 26 31 30
36 27 35 89 111 93 115 3 3 24 30 48 61 l42 56 -2 224 -3 224 -672 1 -672 0
-38 -55 c-21 -31 -41 -60 -46 -66 -4 -5 -66 -90 -138 -187 -72 -98 -135 -178
-140 -178 -5 0 -9 -4 -9 -10 0 -9 -15 -30 -45 -64 -6 -6 -37 -42 -69 -81 -244
-292 -591 -625 -867 -835 -18 -14 -37 -30 -43 -35 -6 -6 -58 -44 -116 -85 -58
-41 -106 -78 -108 -82 -2 -5 -8 -8 -13 -8 -5 0 -31 -16 -58 -36 -28 -19 -58
-36 -68 -36 -22 -2 -116 60 -362 240 -43 31 -216 165 -221 171 -3 3 -21 18
-40 32 -19 15 -44 35 -56 45 -12 11 -50 44 -85 74 -34 30 -81 71 -103 90 -54
47 -416 407 -416 413 0 3 -15 20 -33 38 -40 42 -117 133 -191 224 -31 39 -65
81 -76 93 -11 13 -20 27 -20 32 0 5 -4 10 -8 12 -5 2 -25 27 -44 55 -20 29
-42 59 -50 66 -7 8 -37 50 -67 94 l-53 79 -729 0 c-401 0 -732 -2 -734 -5z"/>
</g>
</svg>
