<svg xmlns="http://www.w3.org/2000/svg" width="80" height="100" viewBox="8 -5 60 60">
  <g fill="#EEEEEE" fill-rule="evenodd" stroke="#5F7DB2">
    <g fill="#FFF">
      <path d="M39.0829124,7.72004682e-12 L47.3324916,8.37363294 L39.0829124,16.7472659 L30.8333333,8.37363294 L39.0829124,7.72004682e-12 Z M7,14 L21.4839906,14 C23.6654681,17.2345903 26.1913399,20.2314406 29.061606,22.9905509 C31.9318721,25.7496611 35.1910271,28.3138029 38.8390711,30.682976 C42.1070193,28.5986596 45.1244371,26.1802025 47.8913243,23.4276047 C50.6582116,20.6750069 53.2306543,17.532472 55.6086527,14 L70,14 C67.2221622,18.317127 62.9635205,23.3305928 57.2240748,29.0403974 C51.4846291,34.7502021 45.3562945,40.0700696 38.8390711,45 C31.6868699,39.5621424 25.5706838,34.3700683 20.4905129,29.4237776 C15.4103419,24.477487 10.9135043,19.3362278 7,14 Z"/>
    </g>
  </g>
</svg>
