<?xml version="1.0" encoding="UTF-8" standalone="no"?>
<!DOCTYPE svg PUBLIC "-//W3C//DTD SVG 1.1//EN"
 "http://www.w3.org/Graphics/SVG/1.1/DTD/svg11.dtd">
<!-- Generated by graphviz version 2.40.1 (20161225.0304)
 -->
<!-- Title: dependencies Pages: 1 -->
<svg width="504pt" height="284pt"
 viewBox="0.00 0.00 504.00 284.00" xmlns="http://www.w3.org/2000/svg" xmlns:xlink="http://www.w3.org/1999/xlink">
<g id="graph0" class="graph" transform="scale(1 1) rotate(0) translate(4 280)">
<title>dependencies</title>
<polygon fill="#ffffff" stroke="transparent" points="-4,4 -4,-280 500,-280 500,4 -4,4"/>
<text text-anchor="start" x="227.0091" y="-42.4" font-family="sans-serif" font-weight="bold" font-size="14.00" fill="#000000">Legend</text>
<polygon fill="#ffffb3" stroke="transparent" points="14,-10 14,-30 34,-30 34,-10 14,-10"/>
<text text-anchor="start" x="37.629" y="-15.4" font-family="sans-serif" font-size="14.00" fill="#000000"> &#160;Declarations</text>
<polygon fill="#8dd3c7" stroke="transparent" points="127,-10 127,-30 147,-30 147,-10 127,-10"/>
<text text-anchor="start" x="150.7251" y="-15.4" font-family="sans-serif" font-size="14.00" fill="#000000"> &#160;Module</text>
<polygon fill="#80b1d3" stroke="transparent" points="213,-10 213,-30 233,-30 233,-10 213,-10"/>
<text text-anchor="start" x="236.7812" y="-15.4" font-family="sans-serif" font-size="14.00" fill="#000000"> &#160;Bootstrap</text>
<polygon fill="#fdb462" stroke="transparent" points="310,-10 310,-30 330,-30 330,-10 310,-10"/>
<text text-anchor="start" x="333.6732" y="-15.4" font-family="sans-serif" font-size="14.00" fill="#000000"> &#160;Providers</text>
<polygon fill="#fb8072" stroke="transparent" points="406,-10 406,-30 426,-30 426,-10 406,-10"/>
<text text-anchor="start" x="429.7258" y="-15.4" font-family="sans-serif" font-size="14.00" fill="#000000"> &#160;Exports</text>
<g id="clust1" class="cluster">
<title>cluster_CrudModule</title>
<polygon fill="none" stroke="#000000" stroke-dasharray="1,5" points="110,-70 110,-268 386,-268 386,-70 110,-70"/>
</g>
<g id="clust2" class="cluster">
<title>cluster_CrudModule_declarations</title>
<polygon fill="none" stroke="#000000" points="122,-78 122,-130 375,-130 375,-78 122,-78"/>
</g>
<g id="clust6" class="cluster">
<title>cluster_CrudModule_exports</title>
<polygon fill="none" stroke="#000000" points="118,-208 118,-260 378,-260 378,-208 118,-208"/>
</g>
<!-- DetailComponent -->
<g id="node1" class="node">
<title>DetailComponent</title>
<polygon fill="#ffffb3" stroke="#000000" points="366.5409,-122 251.4591,-122 251.4591,-86 366.5409,-86 366.5409,-122"/>
<text text-anchor="middle" x="309" y="-99.8" font-family="Times,serif" font-size="14.00" fill="#000000">DetailComponent</text>
</g>
<!-- CrudModule -->
<g id="node3" class="node">
<title>CrudModule</title>
<polygon fill="#8dd3c7" stroke="#000000" points="225.5482,-187 222.5482,-191 201.5482,-191 198.5482,-187 138.4518,-187 138.4518,-151 225.5482,-151 225.5482,-187"/>
<text text-anchor="middle" x="182" y="-164.8" font-family="Times,serif" font-size="14.00" fill="#000000">CrudModule</text>
</g>
<!-- DetailComponent&#45;&gt;CrudModule -->
<g id="edge1" class="edge">
<title>DetailComponent&#45;&gt;CrudModule</title>
<path fill="none" stroke="#000000" d="M328.2567,-122.0225C328.2567,-139.3734 328.2567,-163 328.2567,-163 328.2567,-163 235.8818,-163 235.8818,-163"/>
<polygon fill="#000000" stroke="#000000" points="235.8819,-159.5001 225.8818,-163 235.8818,-166.5001 235.8819,-159.5001"/>
</g>
<!-- ListComponent -->
<g id="node2" class="node">
<title>ListComponent</title>
<polygon fill="#ffffb3" stroke="#000000" points="233.6109,-122 130.3891,-122 130.3891,-86 233.6109,-86 233.6109,-122"/>
<text text-anchor="middle" x="182" y="-99.8" font-family="Times,serif" font-size="14.00" fill="#000000">ListComponent</text>
</g>
<!-- ListComponent&#45;&gt;CrudModule -->
<g id="edge2" class="edge">
<title>ListComponent&#45;&gt;CrudModule</title>
<path fill="none" stroke="#000000" d="M182,-122.1061C182,-122.1061 182,-140.991 182,-140.991"/>
<polygon fill="#000000" stroke="#000000" points="178.5001,-140.9909 182,-150.991 185.5001,-140.991 178.5001,-140.9909"/>
</g>
<!-- DetailComponent  -->
<g id="node4" class="node">
<title>DetailComponent </title>
<polygon fill="#fb8072" stroke="#000000" points="369.54,-252 250.46,-252 250.46,-216 369.54,-216 369.54,-252"/>
<text text-anchor="middle" x="310" y="-229.8" font-family="Times,serif" font-size="14.00" fill="#000000">DetailComponent </text>
</g>
<!-- CrudModule&#45;&gt;DetailComponent  -->
<g id="edge3" class="edge">
<title>CrudModule&#45;&gt;DetailComponent </title>
<path fill="none" stroke="#000000" stroke-dasharray="5,2" d="M225.8233,-175C255.6527,-175 289.7433,-175 289.7433,-175 289.7433,-175 289.7433,-205.9775 289.7433,-205.9775"/>
<polygon fill="#000000" stroke="#000000" points="286.2434,-205.9774 289.7433,-215.9775 293.2434,-205.9775 286.2434,-205.9774"/>
</g>
<!-- ListComponent  -->
<g id="node5" class="node">
<title>ListComponent </title>
<polygon fill="#fb8072" stroke="#000000" points="232.1115,-252 125.8885,-252 125.8885,-216 232.1115,-216 232.1115,-252"/>
<text text-anchor="middle" x="179" y="-229.8" font-family="Times,serif" font-size="14.00" fill="#000000">ListComponent </text>
</g>
<!-- CrudModule&#45;&gt;ListComponent  -->
<g id="edge4" class="edge">
<title>CrudModule&#45;&gt;ListComponent </title>
<path fill="none" stroke="#000000" stroke-dasharray="5,2" d="M182,-187.1061C182,-187.1061 182,-205.991 182,-205.991"/>
<polygon fill="#000000" stroke="#000000" points="178.5001,-205.9909 182,-215.991 185.5001,-205.991 178.5001,-205.9909"/>
</g>
</g>
</svg>
