<?xml version="1.0" encoding="UTF-8" standalone="no"?>
<!DOCTYPE svg PUBLIC "-//W3C//DTD SVG 1.1//EN"
 "http://www.w3.org/Graphics/SVG/1.1/DTD/svg11.dtd">
<!-- Generated by graphviz version 2.40.1 (20161225.0304)
 -->
<!-- Title: dependencies Pages: 1 -->
<svg width="2201pt" height="363pt"
 viewBox="0.00 0.00 2201.00 363.00" xmlns="http://www.w3.org/2000/svg" xmlns:xlink="http://www.w3.org/1999/xlink">
<g id="graph0" class="graph" transform="scale(1 1) rotate(0) translate(4 359)">
<title>dependencies</title>
<polygon fill="#ffffff" stroke="transparent" points="-4,4 -4,-359 2197,-359 2197,4 -4,4"/>
<text text-anchor="start" x="1075.5091" y="-42.4" font-family="sans-serif" font-weight="bold" font-size="14.00" fill="#000000">Legend</text>
<polygon fill="#ffffb3" stroke="transparent" points="862.5,-10 862.5,-30 882.5,-30 882.5,-10 862.5,-10"/>
<text text-anchor="start" x="886.129" y="-15.4" font-family="sans-serif" font-size="14.00" fill="#000000"> &#160;Declarations</text>
<polygon fill="#8dd3c7" stroke="transparent" points="975.5,-10 975.5,-30 995.5,-30 995.5,-10 975.5,-10"/>
<text text-anchor="start" x="999.2251" y="-15.4" font-family="sans-serif" font-size="14.00" fill="#000000"> &#160;Module</text>
<polygon fill="#80b1d3" stroke="transparent" points="1061.5,-10 1061.5,-30 1081.5,-30 1081.5,-10 1061.5,-10"/>
<text text-anchor="start" x="1085.2812" y="-15.4" font-family="sans-serif" font-size="14.00" fill="#000000"> &#160;Bootstrap</text>
<polygon fill="#fdb462" stroke="transparent" points="1158.5,-10 1158.5,-30 1178.5,-30 1178.5,-10 1158.5,-10"/>
<text text-anchor="start" x="1182.1732" y="-15.4" font-family="sans-serif" font-size="14.00" fill="#000000"> &#160;Providers</text>
<polygon fill="#fb8072" stroke="transparent" points="1254.5,-10 1254.5,-30 1274.5,-30 1274.5,-10 1254.5,-10"/>
<text text-anchor="start" x="1278.2258" y="-15.4" font-family="sans-serif" font-size="14.00" fill="#000000"> &#160;Exports</text>
<g id="clust1" class="cluster">
<title>cluster_CrudModule</title>
<polygon fill="none" stroke="#000000" stroke-dasharray="1,5" points="8,-70 8,-279 284,-279 284,-70 8,-70"/>
</g>
<g id="clust2" class="cluster">
<title>cluster_CrudModule_declarations</title>
<polygon fill="none" stroke="#000000" points="22,-78 22,-130 275,-130 275,-78 22,-78"/>
</g>
<g id="clust6" class="cluster">
<title>cluster_CrudModule_exports</title>
<polygon fill="none" stroke="#000000" points="16,-219 16,-271 276,-271 276,-219 16,-219"/>
</g>
<g id="clust21" class="cluster">
<title>cluster_MidgardModule</title>
<polygon fill="none" stroke="#000000" stroke-dasharray="1,5" points="292,-146 292,-347 2185,-347 2185,-146 292,-146"/>
</g>
<g id="clust22" class="cluster">
<title>cluster_MidgardModule_declarations</title>
<polygon fill="none" stroke="#000000" points="1097,-154 1097,-206 2177,-206 2177,-154 1097,-154"/>
</g>
<g id="clust30" class="cluster">
<title>cluster_MidgardModule_imports</title>
<polygon fill="none" stroke="#000000" points="300,-154 300,-206 1089,-206 1089,-154 300,-154"/>
</g>
<g id="clust31" class="cluster">
<title>cluster_MidgardModule_exports</title>
<polygon fill="none" stroke="#000000" points="1119,-287 1119,-339 1269,-339 1269,-287 1119,-287"/>
</g>
<g id="clust40" class="cluster">
<title>cluster_MidgardTranslationModule</title>
<polygon fill="none" stroke="#000000" stroke-dasharray="1,5" points="466,-70 466,-138 618,-138 618,-70 466,-70"/>
</g>
<g id="clust41" class="cluster">
<title>cluster_MidgardTranslationModule_declarations</title>
<polygon fill="none" stroke="#000000" points="474,-78 474,-130 610,-130 610,-78 474,-78"/>
</g>
<!-- DetailComponent -->
<g id="node1" class="node">
<title>DetailComponent</title>
<polygon fill="#ffffb3" stroke="#000000" points="266.5409,-122 151.4591,-122 151.4591,-86 266.5409,-86 266.5409,-122"/>
<text text-anchor="middle" x="209" y="-99.8" font-family="Times,serif" font-size="14.00" fill="#000000">DetailComponent</text>
</g>
<!-- CrudModule -->
<g id="node3" class="node">
<title>CrudModule</title>
<polygon fill="#8dd3c7" stroke="#000000" points="251.5482,-198 248.5482,-202 227.5482,-202 224.5482,-198 164.4518,-198 164.4518,-162 251.5482,-162 251.5482,-198"/>
<text text-anchor="middle" x="208" y="-175.8" font-family="Times,serif" font-size="14.00" fill="#000000">CrudModule</text>
</g>
<!-- DetailComponent&#45;&gt;CrudModule -->
<g id="edge1" class="edge">
<title>DetailComponent&#45;&gt;CrudModule</title>
<path fill="none" stroke="#000000" d="M208,-122.0109C208,-122.0109 208,-151.855 208,-151.855"/>
<polygon fill="#000000" stroke="#000000" points="204.5001,-151.8549 208,-161.855 211.5001,-151.855 204.5001,-151.8549"/>
</g>
<!-- ListComponent -->
<g id="node2" class="node">
<title>ListComponent</title>
<polygon fill="#ffffb3" stroke="#000000" points="133.6109,-122 30.3891,-122 30.3891,-86 133.6109,-86 133.6109,-122"/>
<text text-anchor="middle" x="82" y="-99.8" font-family="Times,serif" font-size="14.00" fill="#000000">ListComponent</text>
</g>
<!-- ListComponent&#45;&gt;CrudModule -->
<g id="edge2" class="edge">
<title>ListComponent&#45;&gt;CrudModule</title>
<path fill="none" stroke="#000000" d="M63.7315,-122.0267C63.7315,-142.7672 63.7315,-174 63.7315,-174 63.7315,-174 154.3232,-174 154.3232,-174"/>
<polygon fill="#000000" stroke="#000000" points="154.3232,-177.5001 164.3232,-174 154.3232,-170.5001 154.3232,-177.5001"/>
</g>
<!-- DetailComponent  -->
<g id="node4" class="node">
<title>DetailComponent </title>
<polygon fill="#fb8072" stroke="#000000" points="267.54,-263 148.46,-263 148.46,-227 267.54,-227 267.54,-263"/>
<text text-anchor="middle" x="208" y="-240.8" font-family="Times,serif" font-size="14.00" fill="#000000">DetailComponent </text>
</g>
<!-- CrudModule&#45;&gt;DetailComponent  -->
<g id="edge3" class="edge">
<title>CrudModule&#45;&gt;DetailComponent </title>
<path fill="none" stroke="#000000" stroke-dasharray="5,2" d="M208,-198.1061C208,-198.1061 208,-216.991 208,-216.991"/>
<polygon fill="#000000" stroke="#000000" points="204.5001,-216.9909 208,-226.991 211.5001,-216.991 204.5001,-216.9909"/>
</g>
<!-- ListComponent  -->
<g id="node5" class="node">
<title>ListComponent </title>
<polygon fill="#fb8072" stroke="#000000" points="130.1115,-263 23.8885,-263 23.8885,-227 130.1115,-227 130.1115,-263"/>
<text text-anchor="middle" x="77" y="-240.8" font-family="Times,serif" font-size="14.00" fill="#000000">ListComponent </text>
</g>
<!-- CrudModule&#45;&gt;ListComponent  -->
<g id="edge4" class="edge">
<title>CrudModule&#45;&gt;ListComponent </title>
<path fill="none" stroke="#000000" stroke-dasharray="5,2" d="M164.1372,-186C133.1159,-186 97.0185,-186 97.0185,-186 97.0185,-186 97.0185,-216.9775 97.0185,-216.9775"/>
<polygon fill="#000000" stroke="#000000" points="93.5186,-216.9774 97.0185,-226.9775 100.5186,-216.9775 93.5186,-216.9774"/>
</g>
<!-- MidgardModule -->
<g id="node13" class="node">
<title>MidgardModule</title>
<polygon fill="#8dd3c7" stroke="#000000" points="1247.7605,-263 1244.7605,-267 1223.7605,-267 1220.7605,-263 1140.2395,-263 1140.2395,-227 1247.7605,-227 1247.7605,-263"/>
<text text-anchor="middle" x="1194" y="-240.8" font-family="Times,serif" font-size="14.00" fill="#000000">MidgardModule</text>
</g>
<!-- CrudModule&#45;&gt;MidgardModule -->
<g id="edge12" class="edge">
<title>CrudModule&#45;&gt;MidgardModule</title>
<path fill="none" stroke="#000000" d="M251.5717,-180C270.1744,-180 287.6828,-180 287.6828,-180 287.6828,-180 287.6828,-258 287.6828,-258 287.6828,-258 1130.0199,-258 1130.0199,-258"/>
<polygon fill="#000000" stroke="#000000" points="1130.0199,-261.5001 1140.0199,-258 1130.0199,-254.5001 1130.0199,-261.5001"/>
</g>
<!-- LoginComponent -->
<g id="node6" class="node">
<title>LoginComponent</title>
<polygon fill="#ffffb3" stroke="#000000" points="2169.2758,-198 2054.7242,-198 2054.7242,-162 2169.2758,-162 2169.2758,-198"/>
<text text-anchor="middle" x="2112" y="-175.8" font-family="Times,serif" font-size="14.00" fill="#000000">LoginComponent</text>
</g>
<!-- LoginComponent&#45;&gt;MidgardModule -->
<g id="edge5" class="edge">
<title>LoginComponent&#45;&gt;MidgardModule</title>
<path fill="none" stroke="#000000" d="M2112,-198.0908C2112,-221.1328 2112,-258 2112,-258 2112,-258 1257.9979,-258 1257.9979,-258"/>
<polygon fill="#000000" stroke="#000000" points="1257.9979,-254.5001 1247.9979,-258 1257.9978,-261.5001 1257.9979,-254.5001"/>
</g>
<!-- MidgardComponent -->
<g id="node7" class="node">
<title>MidgardComponent</title>
<polygon fill="#ffffb3" stroke="#000000" points="2036.5436,-198 1907.4564,-198 1907.4564,-162 2036.5436,-162 2036.5436,-198"/>
<text text-anchor="middle" x="1972" y="-175.8" font-family="Times,serif" font-size="14.00" fill="#000000">MidgardComponent</text>
</g>
<!-- MidgardComponent&#45;&gt;MidgardModule -->
<g id="edge6" class="edge">
<title>MidgardComponent&#45;&gt;MidgardModule</title>
<path fill="none" stroke="#000000" d="M1972,-198.0449C1972,-219.6623 1972,-253 1972,-253 1972,-253 1257.782,-253 1257.782,-253"/>
<polygon fill="#000000" stroke="#000000" points="1257.7821,-249.5001 1247.782,-253 1257.782,-256.5001 1257.7821,-249.5001"/>
</g>
<!-- NavBarComponent -->
<g id="node8" class="node">
<title>NavBarComponent</title>
<polygon fill="#ffffb3" stroke="#000000" points="1889.3655,-198 1764.6345,-198 1764.6345,-162 1889.3655,-162 1889.3655,-198"/>
<text text-anchor="middle" x="1827" y="-175.8" font-family="Times,serif" font-size="14.00" fill="#000000">NavBarComponent</text>
</g>
<!-- NavBarComponent&#45;&gt;MidgardModule -->
<g id="edge7" class="edge">
<title>NavBarComponent&#45;&gt;MidgardModule</title>
<path fill="none" stroke="#000000" d="M1827,-198.2228C1827,-218.3652 1827,-248 1827,-248 1827,-248 1257.9692,-248 1257.9692,-248"/>
<polygon fill="#000000" stroke="#000000" points="1257.9693,-244.5001 1247.9692,-248 1257.9692,-251.5001 1257.9693,-244.5001"/>
</g>
<!-- TopBarComponent -->
<g id="node9" class="node">
<title>TopBarComponent</title>
<polygon fill="#ffffb3" stroke="#000000" points="1747.0968,-198 1622.9032,-198 1622.9032,-162 1747.0968,-162 1747.0968,-198"/>
<text text-anchor="middle" x="1685" y="-175.8" font-family="Times,serif" font-size="14.00" fill="#000000">TopBarComponent</text>
</g>
<!-- TopBarComponent&#45;&gt;MidgardModule -->
<g id="edge8" class="edge">
<title>TopBarComponent&#45;&gt;MidgardModule</title>
<path fill="none" stroke="#000000" d="M1685,-198.2222C1685,-216.8285 1685,-243 1685,-243 1685,-243 1257.9501,-243 1257.9501,-243"/>
<polygon fill="#000000" stroke="#000000" points="1257.9502,-239.5001 1247.9501,-243 1257.9501,-246.5001 1257.9502,-239.5001"/>
</g>
<!-- UserComponent -->
<g id="node10" class="node">
<title>UserComponent</title>
<polygon fill="#ffffb3" stroke="#000000" points="1604.7591,-198 1497.2409,-198 1497.2409,-162 1604.7591,-162 1604.7591,-198"/>
<text text-anchor="middle" x="1551" y="-175.8" font-family="Times,serif" font-size="14.00" fill="#000000">UserComponent</text>
</g>
<!-- UserComponent&#45;&gt;MidgardModule -->
<g id="edge9" class="edge">
<title>UserComponent&#45;&gt;MidgardModule</title>
<path fill="none" stroke="#000000" d="M1551,-198.0336C1551,-215.0597 1551,-238 1551,-238 1551,-238 1257.833,-238 1257.833,-238"/>
<polygon fill="#000000" stroke="#000000" points="1257.8331,-234.5001 1247.833,-238 1257.833,-241.5001 1257.8331,-234.5001"/>
</g>
<!-- WorkflowLevel1Component -->
<g id="node11" class="node">
<title>WorkflowLevel1Component</title>
<polygon fill="#ffffb3" stroke="#000000" points="1478.738,-198 1301.262,-198 1301.262,-162 1478.738,-162 1478.738,-198"/>
<text text-anchor="middle" x="1390" y="-175.8" font-family="Times,serif" font-size="14.00" fill="#000000">WorkflowLevel1Component</text>
</g>
<!-- WorkflowLevel1Component&#45;&gt;MidgardModule -->
<g id="edge10" class="edge">
<title>WorkflowLevel1Component&#45;&gt;MidgardModule</title>
<path fill="none" stroke="#000000" d="M1390,-198.2396C1390,-213.5706 1390,-233 1390,-233 1390,-233 1257.8171,-233 1257.8171,-233"/>
<polygon fill="#000000" stroke="#000000" points="1257.8171,-229.5001 1247.8171,-233 1257.8171,-236.5001 1257.8171,-229.5001"/>
</g>
<!-- WorkflowLevel2Component -->
<g id="node12" class="node">
<title>WorkflowLevel2Component</title>
<polygon fill="#ffffb3" stroke="#000000" points="1282.738,-198 1105.262,-198 1105.262,-162 1282.738,-162 1282.738,-198"/>
<text text-anchor="middle" x="1194" y="-175.8" font-family="Times,serif" font-size="14.00" fill="#000000">WorkflowLevel2Component</text>
</g>
<!-- WorkflowLevel2Component&#45;&gt;MidgardModule -->
<g id="edge11" class="edge">
<title>WorkflowLevel2Component&#45;&gt;MidgardModule</title>
<path fill="none" stroke="#000000" d="M1194,-198.1061C1194,-198.1061 1194,-216.991 1194,-216.991"/>
<polygon fill="#000000" stroke="#000000" points="1190.5001,-216.9909 1194,-226.991 1197.5001,-216.991 1190.5001,-216.9909"/>
</g>
<!-- MidgardComponent  -->
<g id="node19" class="node">
<title>MidgardComponent </title>
<polygon fill="#fb8072" stroke="#000000" points="1260.5428,-331 1127.4572,-331 1127.4572,-295 1260.5428,-295 1260.5428,-331"/>
<text text-anchor="middle" x="1194" y="-308.8" font-family="Times,serif" font-size="14.00" fill="#000000">MidgardComponent </text>
</g>
<!-- MidgardModule&#45;&gt;MidgardComponent  -->
<g id="edge18" class="edge">
<title>MidgardModule&#45;&gt;MidgardComponent </title>
<path fill="none" stroke="#000000" stroke-dasharray="5,2" d="M1194,-263.2228C1194,-263.2228 1194,-284.7269 1194,-284.7269"/>
<polygon fill="#000000" stroke="#000000" points="1190.5001,-284.7269 1194,-294.7269 1197.5001,-284.727 1190.5001,-284.7269"/>
</g>
<!-- GraphQLModule -->
<g id="node14" class="node">
<title>GraphQLModule</title>
<polygon fill="#8dd3c7" stroke="#000000" points="1080.691,-198 1077.691,-202 1056.691,-202 1053.691,-198 967.309,-198 967.309,-162 1080.691,-162 1080.691,-198"/>
<text text-anchor="middle" x="1024" y="-175.8" font-family="Times,serif" font-size="14.00" fill="#000000">GraphQLModule</text>
</g>
<!-- GraphQLModule&#45;&gt;MidgardModule -->
<g id="edge13" class="edge">
<title>GraphQLModule&#45;&gt;MidgardModule</title>
<path fill="none" stroke="#000000" d="M1024,-198.2396C1024,-213.5706 1024,-233 1024,-233 1024,-233 1130.2109,-233 1130.2109,-233"/>
<polygon fill="#000000" stroke="#000000" points="1130.211,-236.5001 1140.2109,-233 1130.2109,-229.5001 1130.211,-236.5001"/>
</g>
<!-- MidgardHttpModule -->
<g id="node15" class="node">
<title>MidgardHttpModule</title>
<polygon fill="#8dd3c7" stroke="#000000" points="949.1485,-198 946.1485,-202 925.1485,-202 922.1485,-198 816.8515,-198 816.8515,-162 949.1485,-162 949.1485,-198"/>
<text text-anchor="middle" x="883" y="-175.8" font-family="Times,serif" font-size="14.00" fill="#000000">MidgardHttpModule</text>
</g>
<!-- MidgardHttpModule&#45;&gt;MidgardModule -->
<g id="edge14" class="edge">
<title>MidgardHttpModule&#45;&gt;MidgardModule</title>
<path fill="none" stroke="#000000" d="M883,-198.0336C883,-215.0597 883,-238 883,-238 883,-238 1130.183,-238 1130.183,-238"/>
<polygon fill="#000000" stroke="#000000" points="1130.183,-241.5001 1140.183,-238 1130.1829,-234.5001 1130.183,-241.5001"/>
</g>
<!-- MidgardRoutingModule -->
<g id="node16" class="node">
<title>MidgardRoutingModule</title>
<polygon fill="#8dd3c7" stroke="#000000" points="798.378,-198 795.378,-202 774.378,-202 771.378,-198 645.622,-198 645.622,-162 798.378,-162 798.378,-198"/>
<text text-anchor="middle" x="722" y="-175.8" font-family="Times,serif" font-size="14.00" fill="#000000">MidgardRoutingModule</text>
</g>
<!-- MidgardRoutingModule&#45;&gt;MidgardModule -->
<g id="edge15" class="edge">
<title>MidgardRoutingModule&#45;&gt;MidgardModule</title>
<path fill="none" stroke="#000000" d="M722,-198.2222C722,-216.8285 722,-243 722,-243 722,-243 1129.8556,-243 1129.8556,-243"/>
<polygon fill="#000000" stroke="#000000" points="1129.8556,-246.5001 1139.8556,-243 1129.8556,-239.5001 1129.8556,-246.5001"/>
</g>
<!-- MidgardTranslationModule -->
<g id="node17" class="node">
<title>MidgardTranslationModule</title>
<polygon fill="#8dd3c7" stroke="#000000" points="627.5197,-198 624.5197,-202 603.5197,-202 600.5197,-198 456.4803,-198 456.4803,-162 627.5197,-162 627.5197,-198"/>
<text text-anchor="middle" x="542" y="-175.8" font-family="Times,serif" font-size="14.00" fill="#000000">MidgardTranslationModule</text>
</g>
<!-- MidgardTranslationModule&#45;&gt;MidgardModule -->
<g id="edge16" class="edge">
<title>MidgardTranslationModule&#45;&gt;MidgardModule</title>
<path fill="none" stroke="#000000" d="M542,-198.2228C542,-218.3652 542,-248 542,-248 542,-248 1130.0894,-248 1130.0894,-248"/>
<polygon fill="#000000" stroke="#000000" points="1130.0894,-251.5001 1140.0894,-248 1130.0894,-244.5001 1130.0894,-251.5001"/>
</g>
<!-- MigardStoreModule -->
<g id="node18" class="node">
<title>MigardStoreModule</title>
<polygon fill="#8dd3c7" stroke="#000000" points="438.309,-198 435.309,-202 414.309,-202 411.309,-198 307.691,-198 307.691,-162 438.309,-162 438.309,-198"/>
<text text-anchor="middle" x="373" y="-175.8" font-family="Times,serif" font-size="14.00" fill="#000000">MigardStoreModule</text>
</g>
<!-- MigardStoreModule&#45;&gt;MidgardModule -->
<g id="edge17" class="edge">
<title>MigardStoreModule&#45;&gt;MidgardModule</title>
<path fill="none" stroke="#000000" d="M373,-198.0449C373,-219.6623 373,-253 373,-253 373,-253 1130.1319,-253 1130.1319,-253"/>
<polygon fill="#000000" stroke="#000000" points="1130.1319,-256.5001 1140.1319,-253 1130.1319,-249.5001 1130.1319,-256.5001"/>
</g>
<!-- TranslationLoader -->
<g id="node20" class="node">
<title>TranslationLoader</title>
<polygon fill="#ffffb3" stroke="#000000" points="601.9019,-122 482.0981,-122 482.0981,-86 601.9019,-86 601.9019,-122"/>
<text text-anchor="middle" x="542" y="-99.8" font-family="Times,serif" font-size="14.00" fill="#000000">TranslationLoader</text>
</g>
<!-- TranslationLoader&#45;&gt;MidgardTranslationModule -->
<g id="edge19" class="edge">
<title>TranslationLoader&#45;&gt;MidgardTranslationModule</title>
<path fill="none" stroke="#000000" d="M542,-122.0109C542,-122.0109 542,-151.855 542,-151.855"/>
<polygon fill="#000000" stroke="#000000" points="538.5001,-151.8549 542,-161.855 545.5001,-151.855 538.5001,-151.8549"/>
</g>
</g>
</svg>
